<svg xmlns="http://www.w3.org/2000/svg" width="400" height="400" viewBox="0 0 400 400">
<rect width="100%" height="100%" fill="white"/>
<line x1="80.0" y1="320.0" x2="200.0" y2="320.0" stroke="#555" stroke-width="10" stroke-linecap="round"/>
<rect x="122.0" y="308.0" width="36" height="24" rx="4" fill="white" stroke="#777" stroke-width="1.5"/>
<text x="140.0" y="320.0" text-anchor="middle" dominant-baseline="middle" font-family="Arial" font-size="11" font-weight="700">B10</text>
<line x1="80.0" y1="320.0" x2="80.0" y2="200.0" stroke="#555" stroke-width="10" stroke-linecap="round"/>
<rect x="62.0" y="248.0" width="36" height="24" rx="4" fill="white" stroke="#777" stroke-width="1.5"/>
<text x="80.0" y="260.0" text-anchor="middle" dominant-baseline="middle" font-family="Arial" font-size="11" font-weight="700">B16</text>
<line x1="200.0" y1="320.0" x2="320.0" y2="320.0" stroke="#555" stroke-width="10" stroke-linecap="round"/>
<rect x="242.0" y="308.0" width="36" height="24" rx="4" fill="white" stroke="#777" stroke-width="1.5"/>
<text x="260.0" y="320.0" text-anchor="middle" dominant-baseline="middle" font-family="Arial" font-size="11" font-weight="700">B11</text>
<line x1="200.0" y1="320.0" x2="200.0" y2="200.0" stroke="#555" stroke-width="10" stroke-linecap="round"/>
<rect x="182.0" y="248.0" width="36" height="24" rx="4" fill="white" stroke="#777" stroke-width="1.5"/>
<text x="200.0" y="260.0" text-anchor="middle" dominant-baseline="middle" font-family="Arial" font-size="11" font-weight="700">B18</text>
<line x1="320.0" y1="320.0" x2="320.0" y2="200.0" stroke="#555" stroke-width="10" stroke-linecap="round"/>
<rect x="302.0" y="248.0" width="36" height="24" rx="4" fill="white" stroke="#777" stroke-width="1.5"/>
<text x="320.0" y="260.0" text-anchor="middle" dominant-baseline="middle" font-family="Arial" font-size="11" font-weight="700">B20</text>
<line x1="80.0" y1="200.0" x2="200.0" y2="200.0" stroke="#555" stroke-width="10" stroke-linecap="round"/>
<rect x="122.0" y="188.0" width="36" height="24" rx="4" fill="white" stroke="#777" stroke-width="1.5"/>
<text x="140.0" y="200.0" text-anchor="middle" dominant-baseline="middle" font-family="Arial" font-size="11" font-weight="700">B12</text>
<line x1="80.0" y1="200.0" x2="80.0" y2="80.0" stroke="#555" stroke-width="10" stroke-linecap="round"/>
<rect x="62.0" y="128.0" width="36" height="24" rx="4" fill="white" stroke="#777" stroke-width="1.5"/>
<text x="80.0" y="140.0" text-anchor="middle" dominant-baseline="middle" font-family="Arial" font-size="11" font-weight="700">B17</text>
<line x1="200.0" y1="200.0" x2="320.0" y2="200.0" stroke="#555" stroke-width="10" stroke-linecap="round"/>
<rect x="242.0" y="188.0" width="36" height="24" rx="4" fill="white" stroke="#777" stroke-width="1.5"/>
<text x="260.0" y="200.0" text-anchor="middle" dominant-baseline="middle" font-family="Arial" font-size="11" font-weight="700">B13</text>
<line x1="200.0" y1="200.0" x2="200.0" y2="80.0" stroke="#555" stroke-width="10" stroke-linecap="round"/>
<rect x="182.0" y="128.0" width="36" height="24" rx="4" fill="white" stroke="#777" stroke-width="1.5"/>
<text x="200.0" y="140.0" text-anchor="middle" dominant-baseline="middle" font-family="Arial" font-size="11" font-weight="700">B19</text>
<line x1="320.0" y1="200.0" x2="320.0" y2="80.0" stroke="#555" stroke-width="10" stroke-linecap="round"/>
<rect x="302.0" y="128.0" width="36" height="24" rx="4" fill="white" stroke="#777" stroke-width="1.5"/>
<text x="320.0" y="140.0" text-anchor="middle" dominant-baseline="middle" font-family="Arial" font-size="11" font-weight="700">B21</text>
<line x1="80.0" y1="80.0" x2="200.0" y2="80.0" stroke="#555" stroke-width="10" stroke-linecap="round"/>
<rect x="122.0" y="68.0" width="36" height="24" rx="4" fill="white" stroke="#777" stroke-width="1.5"/>
<text x="140.0" y="80.0" text-anchor="middle" dominant-baseline="middle" font-family="Arial" font-size="11" font-weight="700">B14</text>
<line x1="200.0" y1="80.0" x2="320.0" y2="80.0" stroke="#555" stroke-width="10" stroke-linecap="round"/>
<rect x="242.0" y="68.0" width="36" height="24" rx="4" fill="white" stroke="#777" stroke-width="1.5"/>
<text x="260.0" y="80.0" text-anchor="middle" dominant-baseline="middle" font-family="Arial" font-size="11" font-weight="700">B15</text>
<rect x="16.4" y="306.0" width="36" height="28" rx="4" fill="#ffd166" stroke="#b77900" stroke-width="2"/>
<text x="34.4" y="320.0" text-anchor="middle" dominant-baseline="middle" font-family="Arial" font-size="12" font-weight="700">P1</text>
<text x="5.6" y="320.0" text-anchor="middle" dominant-baseline="middle" font-family="Arial" font-size="11" font-weight="400">L</text>
<rect x="62.0" y="351.6" width="36" height="28" rx="4" fill="#ffd166" stroke="#b77900" stroke-width="2"/>
<text x="80.0" y="365.6" text-anchor="middle" dominant-baseline="middle" font-family="Arial" font-size="12" font-weight="700">P2</text>
<text x="80.0" y="394.4" text-anchor="middle" dominant-baseline="middle" font-family="Arial" font-size="11" font-weight="400">D</text>
<rect x="182.0" y="351.6" width="36" height="28" rx="4" fill="#ffd166" stroke="#b77900" stroke-width="2"/>
<text x="200.0" y="365.6" text-anchor="middle" dominant-baseline="middle" font-family="Arial" font-size="12" font-weight="700">P3</text>
<text x="200.0" y="394.4" text-anchor="middle" dominant-baseline="middle" font-family="Arial" font-size="11" font-weight="400">D</text>
<rect x="302.0" y="351.6" width="36" height="28" rx="4" fill="#ffd166" stroke="#b77900" stroke-width="2"/>
<text x="320.0" y="365.6" text-anchor="middle" dominant-baseline="middle" font-family="Arial" font-size="12" font-weight="700">P4</text>
<text x="320.0" y="394.4" text-anchor="middle" dominant-baseline="middle" font-family="Arial" font-size="11" font-weight="400">D</text>
<rect x="347.6" y="306.0" width="36" height="28" rx="4" fill="#ffd166" stroke="#b77900" stroke-width="2"/>
<text x="365.6" y="320.0" text-anchor="middle" dominant-baseline="middle" font-family="Arial" font-size="12" font-weight="700">P5</text>
<text x="394.4" y="320.0" text-anchor="middle" dominant-baseline="middle" font-family="Arial" font-size="11" font-weight="400">R</text>
<rect x="347.6" y="186.0" width="36" height="28" rx="4" fill="#ffd166" stroke="#b77900" stroke-width="2"/>
<text x="365.6" y="200.0" text-anchor="middle" dominant-baseline="middle" font-family="Arial" font-size="12" font-weight="700">P6</text>
<text x="394.4" y="200.0" text-anchor="middle" dominant-baseline="middle" font-family="Arial" font-size="11" font-weight="400">R</text>
<rect x="347.6" y="66.0" width="36" height="28" rx="4" fill="#ffd166" stroke="#b77900" stroke-width="2"/>
<text x="365.6" y="80.0" text-anchor="middle" dominant-baseline="middle" font-family="Arial" font-size="12" font-weight="700">P7</text>
<text x="394.4" y="80.0" text-anchor="middle" dominant-baseline="middle" font-family="Arial" font-size="11" font-weight="400">R</text>
<rect x="302.0" y="20.4" width="36" height="28" rx="4" fill="#ffd166" stroke="#b77900" stroke-width="2"/>
<text x="320.0" y="34.4" text-anchor="middle" dominant-baseline="middle" font-family="Arial" font-size="12" font-weight="700">P8</text>
<text x="320.0" y="5.6" text-anchor="middle" dominant-baseline="middle" font-family="Arial" font-size="11" font-weight="400">U</text>
<rect x="182.0" y="20.4" width="36" height="28" rx="4" fill="#ffd166" stroke="#b77900" stroke-width="2"/>
<text x="200.0" y="34.4" text-anchor="middle" dominant-baseline="middle" font-family="Arial" font-size="12" font-weight="700">P9</text>
<text x="200.0" y="5.6" text-anchor="middle" dominant-baseline="middle" font-family="Arial" font-size="11" font-weight="400">U</text>
<rect x="62.0" y="20.4" width="36" height="28" rx="4" fill="#ffd166" stroke="#b77900" stroke-width="2"/>
<text x="80.0" y="34.4" text-anchor="middle" dominant-baseline="middle" font-family="Arial" font-size="12" font-weight="700">P10</text>
<text x="80.0" y="5.6" text-anchor="middle" dominant-baseline="middle" font-family="Arial" font-size="11" font-weight="400">U</text>
<rect x="16.4" y="66.0" width="36" height="28" rx="4" fill="#ffd166" stroke="#b77900" stroke-width="2"/>
<text x="34.4" y="80.0" text-anchor="middle" dominant-baseline="middle" font-family="Arial" font-size="12" font-weight="700">P11</text>
<text x="5.6" y="80.0" text-anchor="middle" dominant-baseline="middle" font-family="Arial" font-size="11" font-weight="400">L</text>
<rect x="16.4" y="186.0" width="36" height="28" rx="4" fill="#ffd166" stroke="#b77900" stroke-width="2"/>
<text x="34.4" y="200.0" text-anchor="middle" dominant-baseline="middle" font-family="Arial" font-size="12" font-weight="700">P12</text>
<text x="5.6" y="200.0" text-anchor="middle" dominant-baseline="middle" font-family="Arial" font-size="11" font-weight="400">L</text>
<circle cx="80.0" cy="320.0" r="28" fill="#3b82f6" stroke="#1e3a8a" stroke-width="3"/>
<text x="80.0" y="320.0" text-anchor="middle" dominant-baseline="middle" font-family="Arial" font-size="16" font-weight="700" fill="white">I1</text>
<circle cx="200.0" cy="320.0" r="28" fill="#3b82f6" stroke="#1e3a8a" stroke-width="3"/>
<text x="200.0" y="320.0" text-anchor="middle" dominant-baseline="middle" font-family="Arial" font-size="16" font-weight="700" fill="white">I2</text>
<circle cx="320.0" cy="320.0" r="28" fill="#3b82f6" stroke="#1e3a8a" stroke-width="3"/>
<text x="320.0" y="320.0" text-anchor="middle" dominant-baseline="middle" font-family="Arial" font-size="16" font-weight="700" fill="white">I3</text>
<circle cx="80.0" cy="200.0" r="28" fill="#3b82f6" stroke="#1e3a8a" stroke-width="3"/>
<text x="80.0" y="200.0" text-anchor="middle" dominant-baseline="middle" font-family="Arial" font-size="16" font-weight="700" fill="white">I4</text>
<circle cx="200.0" cy="200.0" r="28" fill="#3b82f6" stroke="#1e3a8a" stroke-width="3"/>
<text x="200.0" y="200.0" text-anchor="middle" dominant-baseline="middle" font-family="Arial" font-size="16" font-weight="700" fill="white">I5</text>
<circle cx="320.0" cy="200.0" r="28" fill="#3b82f6" stroke="#1e3a8a" stroke-width="3"/>
<text x="320.0" y="200.0" text-anchor="middle" dominant-baseline="middle" font-family="Arial" font-size="16" font-weight="700" fill="white">I6</text>
<circle cx="80.0" cy="80.0" r="28" fill="#3b82f6" stroke="#1e3a8a" stroke-width="3"/>
<text x="80.0" y="80.0" text-anchor="middle" dominant-baseline="middle" font-family="Arial" font-size="16" font-weight="700" fill="white">I7</text>
<circle cx="200.0" cy="80.0" r="28" fill="#3b82f6" stroke="#1e3a8a" stroke-width="3"/>
<text x="200.0" y="80.0" text-anchor="middle" dominant-baseline="middle" font-family="Arial" font-size="16" font-weight="700" fill="white">I8</text>
<circle cx="320.0" cy="80.0" r="28" fill="#3b82f6" stroke="#1e3a8a" stroke-width="3"/>
<text x="320.0" y="80.0" text-anchor="middle" dominant-baseline="middle" font-family="Arial" font-size="16" font-weight="700" fill="white">I9</text>
</svg>